# This file uses centimeters as units for non-parametric coordinates.

mtllib ghost2.mtl
g default
v 0.923880 0.188869 -0.382683
v 0.707107 0.000000 -0.707106
v 0.382684 0.188869 -0.923879
v 0.000001 0.000000 -1.000000
v -0.382683 0.188869 -0.923880
v -0.707106 0.000000 -0.707107
v -0.923879 0.188869 -0.382684
v -1.000000 0.000000 -0.000000
v -0.923880 0.188869 0.382683
v -0.707107 0.000000 0.707107
v -0.382684 0.188869 0.923879
v -0.000000 0.000000 1.000000
v 0.382683 0.188869 0.923880
v 0.707107 0.000000 0.707107
v 0.923880 0.188869 0.382683
v 1.000000 0.000000 0.000000
v 0.000000 1.784864 0.000000
v 0.000000 2.000000 0.000000
v 0.277229 2.000000 -0.114832
v 0.477055 1.965743 -0.197602
v 0.657321 1.866325 -0.272271
v 0.800380 1.711479 -0.331528
v 0.892230 1.516360 -0.369573
v 0.923880 1.300070 -0.382683
v 0.212182 2.000000 -0.212181
v 0.365122 1.965743 -0.365122
v 0.503092 1.866325 -0.503091
v 0.612585 1.711479 -0.612584
v 0.682884 1.516360 -0.682883
v 0.707107 1.300070 -0.707106
v 0.114832 2.000000 -0.277228
v 0.197603 1.965743 -0.477055
v 0.272271 1.866325 -0.657320
v 0.331529 1.711479 -0.800380
v 0.369574 1.516360 -0.892230
v 0.382684 1.300070 -0.923879
v 0.000000 2.000000 -0.300070
v 0.000000 1.965743 -0.516360
v 0.000000 1.866325 -0.711478
v 0.000000 1.711479 -0.866325
v 0.000000 1.516360 -0.965743
v 0.000001 1.300070 -1.000000
v -0.114832 2.000000 -0.277229
v -0.197602 1.965743 -0.477055
v -0.272271 1.866325 -0.657321
v -0.331528 1.711479 -0.800380
v -0.369573 1.516360 -0.892230
v -0.382683 1.300070 -0.923880
v -0.212181 2.000000 -0.212182
v -0.365122 1.965743 -0.365122
v -0.503091 1.866325 -0.503092
v -0.612584 1.711479 -0.612585
v -0.682883 1.516360 -0.682884
v -0.707106 1.300070 -0.707107
v -0.277229 2.000000 -0.114832
v -0.477055 1.965743 -0.197603
v -0.657320 1.866325 -0.272271
v -0.800380 1.711479 -0.331529
v -0.892230 1.516360 -0.369574
v -0.923879 1.300070 -0.382684
v -0.300070 2.000000 -0.000000
v -0.516360 1.965743 -0.000000
v -0.711479 1.866325 -0.000000
v -0.866325 1.711479 -0.000000
v -0.965743 1.516360 -0.000000
v -1.000000 1.300070 -0.000000
v -0.277229 2.000000 0.114832
v -0.477055 1.965743 0.197602
v -0.657321 1.866325 0.272271
v -0.800380 1.711479 0.331528
v -0.892230 1.516360 0.369574
v -0.923880 1.300070 0.382683
v -0.212182 2.000000 0.212181
v -0.365122 1.965743 0.365122
v -0.503091 1.866325 0.503091
v -0.612585 1.711479 0.612584
v -0.682884 1.516360 0.682883
v -0.707107 1.300070 0.707107
v -0.114832 2.000000 0.277229
v -0.197603 1.965743 0.477055
v -0.272271 1.866325 0.657320
v -0.331528 1.711479 0.800380
v -0.369574 1.516360 0.892230
v -0.382684 1.300070 0.923879
v -0.000000 2.000000 0.300070
v -0.000000 1.965743 0.516360
v -0.000000 1.866325 0.711479
v -0.000000 1.711479 0.866325
v -0.000000 1.516360 0.965743
v -0.000000 1.300070 1.000000
v 0.114832 2.000000 0.277229
v 0.197602 1.965743 0.477055
v 0.272271 1.866325 0.657320
v 0.331528 1.711479 0.800380
v 0.369574 1.516360 0.892230
v 0.382683 1.300070 0.923880
v 0.212182 2.000000 0.212182
v 0.365122 1.965743 0.365122
v 0.503091 1.866325 0.503091
v 0.612584 1.711479 0.612585
v 0.682883 1.516360 0.682883
v 0.707107 1.300070 0.707107
v 0.277229 2.000000 0.114832
v 0.477055 1.965743 0.197603
v 0.657320 1.866325 0.272271
v 0.800380 1.711479 0.331528
v 0.892230 1.516360 0.369574
v 0.923880 1.300070 0.382683
v 0.300070 2.000000 0.000000
v 0.516360 1.965743 0.000000
v 0.711479 1.866325 0.000000
v 0.866325 1.711479 0.000000
v 0.965743 1.516360 0.000000
v 1.000000 1.300070 0.000000
vt 0.875016 0.650035
vt 0.812516 0.650035
vt 0.937516 0.650035
vt 0.000016 0.000000
vt 0.000016 0.650035
vt 0.062516 0.094435
vt 0.062516 0.650035
vt 0.125016 0.000000
vt 0.125016 0.650035
vt 0.187516 0.094435
vt 0.187516 0.650035
vt 0.250016 0.000000
vt 0.250016 0.650035
vt 0.312516 0.094435
vt 0.312516 0.650035
vt 0.066521 0.618558
vt 0.375016 0.650035
vt 0.437516 0.094435
vt 0.437516 0.650035
vt 0.500016 0.650035
vt 0.562516 0.650035
vt 0.625016 0.650035
vt 0.687516 0.650035
vt 0.750016 0.650035
vt 0.051930 0.019812
vt 0.812516 1.000000
vt 0.875016 1.000000
vt 0.000016 1.000000
vt 0.000016 1.000000
vt 0.062516 1.000000
vt 0.125016 1.000000
vt 0.187516 1.000000
vt 0.250016 1.000000
vt 0.312516 1.000000
vt 0.375016 1.000000
vt 0.437516 1.000000
vt 0.500016 1.000000
vt 0.562516 1.000000
vt 0.625016 1.000000
vt 0.687516 1.000000
vt 0.750016 1.000000
vt 0.812516 0.758180
vt 0.750016 0.758180
vt 0.812516 0.855739
vt 0.750016 0.855739
vt 0.812516 0.933163
vt 0.750016 0.933163
vt 0.812516 0.982871
vt 0.750016 0.982871
vt 0.875016 0.982871
vt 0.875016 0.933163
vt 0.875016 0.855739
vt 0.875016 0.758180
vt 0.000016 0.982871
vt 0.000016 0.933163
vt 0.000016 0.855739
vt 0.000016 0.758180
vt 0.062516 0.982871
vt 0.062516 0.933163
vt 0.062516 0.855739
vt 0.062516 0.758180
vt 0.125016 0.982871
vt 0.125016 0.933163
vt 0.125016 0.855739
vt 0.125016 0.758180
vt 0.187516 0.982871
vt 0.187516 0.933163
vt 0.187516 0.855739
vt 0.187516 0.758180
vt 0.250016 0.982871
vt 0.250016 0.933163
vt 0.250016 0.855739
vt 0.250016 0.758180
vt 0.312516 0.982871
vt 0.312516 0.933163
vt 0.312516 0.855739
vt 0.312516 0.758180
vt 0.375016 0.982871
vt 0.375016 0.933163
vt 0.375016 0.855739
vt 0.375016 0.758180
vt 0.437516 0.982871
vt 0.437516 0.933163
vt 0.437516 0.855739
vt 0.437516 0.758180
vt 0.500016 0.982871
vt 0.500016 0.933163
vt 0.500016 0.855739
vt 0.500016 0.758180
vt 0.562516 0.982871
vt 0.562516 0.933163
vt 0.562516 0.855739
vt 0.562516 0.758180
vt 0.625016 0.982871
vt 0.625016 0.933163
vt 0.625016 0.855739
vt 0.625016 0.758180
vt 0.687516 0.982871
vt 0.687516 0.933163
vt 0.687516 0.855739
vt 0.687516 0.758180
vt 1.000016 0.000000
vt 0.812516 0.094435
vt 0.875016 0.000000
vt 0.937516 0.094435
vt 0.500016 0.000000
vt 0.562516 0.094435
vt 0.526634 0.614098
vt 0.687516 0.094435
vt 0.045408 0.024999
vt 0.750016 0.000000
vt 1.000016 1.000000
vt 1.500016 1.000000
vt 1.000016 1.000000
vt 0.937516 0.982871
vt 1.000016 0.982871
vt 0.937516 1.000000
vt 0.937516 0.933163
vt 1.000016 0.933163
vt 0.937516 0.855739
vt 1.000016 0.855739
vt 0.937516 0.758180
vt 1.000016 0.758180
vt 1.000016 0.650035
vt 0.037715 0.068825
vt 0.056288 0.024999
vt 0.057819 0.019812
vt 0.056288 0.024999
vt 0.051930 0.019812
vt 0.045408 0.024999
vt 0.037715 0.019812
vt 0.030021 0.024999
vt 0.023499 0.019812
vt 0.019141 0.024999
vt 0.017611 0.019812
vt 0.019141 0.024999
vt 0.023499 0.019812
vt 0.030021 0.024999
vt 0.037715 0.019812
vt 0.621583 0.260330
vt 0.621583 0.614098
vt 0.733582 0.200201
vt 0.733582 0.614098
vt 0.845582 0.260330
vt 0.845582 0.614098
vt 0.940531 0.614098
vt 0.159328 0.250987
vt 0.159328 0.618558
vt 0.268800 0.188511
vt 0.268800 0.618558
vt 0.378273 0.250987
vt 0.378273 0.618558
vt 0.471080 0.618558
vn 0.707107 0.000000 -0.707107
vn 0.685323 0.067238 -0.725129
vn 0.923880 0.000000 -0.382683
vn 0.903989 0.094084 -0.417075
vn 0.382684 0.000000 -0.923879
vn 0.344300 0.094084 -0.934134
vn 0.000001 0.000000 -1.000000
vn -0.028147 0.067238 -0.997340
vn -0.382683 0.000000 -0.923880
vn -0.417075 0.094084 -0.903989
vn -0.707106 0.000000 -0.707107
vn -0.725129 0.067238 -0.685323
vn -0.923879 0.000000 -0.382684
vn -0.934134 0.094084 -0.344300
vn -1.000000 0.000000 -0.000000
vn -0.997340 0.067238 0.028147
vn -0.923880 0.000000 0.382683
vn -0.903989 0.094084 0.417075
vn -0.707107 0.000000 0.707107
vn -0.685323 0.067238 0.725129
vn -0.382684 0.000000 0.923879
vn -0.344300 0.094084 0.934134
vn -0.000000 0.000000 1.000000
vn 0.028147 0.067238 0.997340
vn 0.382683 0.000000 0.923880
vn 0.417076 0.094084 0.903989
vn 0.707107 0.000000 0.707107
vn 0.725129 0.067238 0.685323
vn 0.923880 0.000000 0.382683
vn 0.934134 0.094084 0.344300
vn 1.000000 0.000000 0.000000
vn 0.997340 0.067238 -0.028147
vn -0.616885 -0.488781 0.616884
vn -0.782896 -0.530955 0.324286
vn -0.000000 -1.000000 -0.000000
vn -0.324287 -0.530955 0.782896
vn -0.000000 -0.488781 0.872407
vn 0.324286 -0.530954 0.782896
vn 0.616884 -0.488781 0.616885
vn 0.782896 -0.530955 0.324286
vn 0.872407 -0.488781 0.000000
vn 0.782896 -0.530955 -0.324286
vn 0.616885 -0.488781 -0.616885
vn 0.324286 -0.530954 -0.782896
vn 0.000000 -0.488781 -0.872407
vn -0.324286 -0.530954 -0.782896
vn -0.616885 -0.488781 -0.616885
vn -0.782896 -0.530954 -0.324286
vn -0.872407 -0.488781 -0.000000
vn 0.089343 0.995541 -0.030253
vn 0.070965 0.995541 -0.062140
vn 0.000000 1.000000 -0.000000
vn 0.041783 0.995541 -0.084567
vn 0.006241 0.995541 -0.094119
vn -0.030252 0.995541 -0.089343
vn -0.062140 0.995541 -0.070965
vn -0.084567 0.995541 -0.041783
vn -0.094119 0.995541 -0.006240
vn -0.089343 0.995541 0.030253
vn -0.070965 0.995541 0.062139
vn -0.041783 0.995541 0.084567
vn -0.006241 0.995541 0.094119
vn 0.030252 0.995541 0.089343
vn 0.062140 0.995541 0.070965
vn 0.084567 0.995541 0.041783
vn 0.094119 0.995541 0.006240
vn 0.948611 0.254035 -0.188690
vn 0.917673 0.352925 -0.182536
vn 0.827232 0.537226 -0.164547
vn 0.767548 0.622544 -0.152674
vn 0.624434 0.771139 -0.124207
vn 0.540821 0.834230 -0.107576
vn 0.357586 0.931168 -0.071128
vn 0.257864 0.964819 -0.051292
vn 0.218607 0.964819 -0.146069
vn 0.303147 0.931168 -0.202555
vn 0.458486 0.834230 -0.306351
vn 0.529370 0.771139 -0.353713
vn 0.650696 0.622544 -0.434781
vn 0.701294 0.537226 -0.468589
vn 0.777966 0.352925 -0.519820
vn 0.804194 0.254035 -0.537345
vn 0.146068 0.964819 -0.218607
vn 0.202556 0.931168 -0.303147
vn 0.306351 0.834230 -0.458486
vn 0.353714 0.771139 -0.529369
vn 0.434781 0.622544 -0.650695
vn 0.468590 0.537226 -0.701293
vn 0.519821 0.352925 -0.777966
vn 0.537345 0.254035 -0.804193
vn 0.051293 0.964819 -0.257864
vn 0.071128 0.931168 -0.357586
vn 0.107576 0.834230 -0.540821
vn 0.124208 0.771139 -0.624434
vn 0.152675 0.622544 -0.767547
vn 0.164547 0.537225 -0.827232
vn 0.182537 0.352925 -0.917673
vn 0.188691 0.254035 -0.948611
vn -0.051292 0.964819 -0.257864
vn -0.071128 0.931168 -0.357586
vn -0.107576 0.834230 -0.540821
vn -0.124207 0.771138 -0.624434
vn -0.152674 0.622544 -0.767548
vn -0.164546 0.537225 -0.827232
vn -0.182536 0.352925 -0.917674
vn -0.188690 0.254035 -0.948611
vn -0.146068 0.964819 -0.218607
vn -0.202556 0.931168 -0.303147
vn -0.306350 0.834230 -0.458486
vn -0.353713 0.771139 -0.529370
vn -0.434780 0.622544 -0.650696
vn -0.468589 0.537225 -0.701294
vn -0.519820 0.352925 -0.777966
vn -0.537344 0.254035 -0.804194
vn -0.218606 0.964819 -0.146068
vn -0.303146 0.931168 -0.202556
vn -0.458486 0.834230 -0.306351
vn -0.529369 0.771139 -0.353713
vn -0.650695 0.622544 -0.434781
vn -0.701293 0.537226 -0.468590
vn -0.777966 0.352925 -0.519821
vn -0.804193 0.254035 -0.537345
vn -0.257864 0.964819 -0.051292
vn -0.357586 0.931168 -0.071129
vn -0.540821 0.834230 -0.107576
vn -0.624434 0.771139 -0.124208
vn -0.767548 0.622544 -0.152675
vn -0.827232 0.537226 -0.164547
vn -0.917674 0.352924 -0.182537
vn -0.948611 0.254035 -0.188691
vn -0.257864 0.964819 0.051292
vn -0.357586 0.931168 0.071128
vn -0.540821 0.834230 0.107576
vn -0.624434 0.771139 0.124207
vn -0.767547 0.622544 0.152674
vn -0.827232 0.537226 0.164546
vn -0.917674 0.352925 0.182536
vn -0.948611 0.254035 0.188690
vn -0.218607 0.964819 0.146068
vn -0.303147 0.931168 0.202556
vn -0.458486 0.834230 0.306350
vn -0.529370 0.771139 0.353713
vn -0.650696 0.622544 0.434781
vn -0.701294 0.537225 0.468589
vn -0.777966 0.352925 0.519820
vn -0.804194 0.254035 0.537344
vn -0.146068 0.964819 0.218607
vn -0.202556 0.931168 0.303147
vn -0.306351 0.834230 0.458486
vn -0.353714 0.771139 0.529369
vn -0.434781 0.622544 0.650695
vn -0.468590 0.537225 0.701293
vn -0.519820 0.352925 0.777966
vn -0.537345 0.254035 0.804193
vn -0.051292 0.964819 0.257864
vn -0.071128 0.931168 0.357586
vn -0.107576 0.834230 0.540821
vn -0.124208 0.771139 0.624434
vn -0.152675 0.622544 0.767547
vn -0.164547 0.537226 0.827232
vn -0.182537 0.352925 0.917674
vn -0.188690 0.254035 0.948611
vn 0.051292 0.964819 0.257864
vn 0.071128 0.931168 0.357586
vn 0.107576 0.834230 0.540821
vn 0.124208 0.771139 0.624434
vn 0.152674 0.622544 0.767548
vn 0.164546 0.537226 0.827232
vn 0.182536 0.352925 0.917674
vn 0.188690 0.254035 0.948611
vn 0.146068 0.964819 0.218607
vn 0.202556 0.931168 0.303147
vn 0.306351 0.834230 0.458486
vn 0.353713 0.771139 0.529370
vn 0.434781 0.622544 0.650695
vn 0.468589 0.537225 0.701294
vn 0.519820 0.352925 0.777966
vn 0.537345 0.254035 0.804193
vn 0.218607 0.964819 0.146068
vn 0.303146 0.931168 0.202556
vn 0.458486 0.834230 0.306350
vn 0.529370 0.771139 0.353713
vn 0.650696 0.622544 0.434781
vn 0.701294 0.537225 0.468589
vn 0.777966 0.352925 0.519820
vn 0.804193 0.254035 0.537345
vn 0.257864 0.964819 0.051292
vn 0.357586 0.931168 0.071129
vn 0.540821 0.834230 0.107576
vn 0.624434 0.771139 0.124208
vn 0.767547 0.622544 0.152675
vn 0.827232 0.537225 0.164547
vn 0.917673 0.352925 0.182537
vn 0.948611 0.254035 0.188690
g pCylinder1
usemtl lambert2SG
f 2/104/1 30/1/2 1/103/3
f 1/103/3 30/1/2 24/2/4
f 2/104/1 3/105/5 30/1/2
f 30/1/2 3/105/5 36/3/6
f 4/102/7 42/124/8 3/105/5
f 3/105/5 42/124/8 36/3/6
f 4/4/7 5/6/9 42/5/8
f 42/5/8 5/6/9 48/7/10
f 6/8/11 54/9/12 5/6/9
f 5/6/9 54/9/12 48/7/10
f 6/8/11 7/10/13 54/9/12
f 54/9/12 7/10/13 60/11/14
f 8/12/15 66/13/16 7/10/13
f 7/10/13 66/13/16 60/11/14
f 8/12/15 9/14/17 66/13/16
f 66/16/16 9/147/17 72/148/18
f 10/149/19 78/150/20 9/147/17
f 9/147/17 78/150/20 72/148/18
f 10/149/19 11/151/21 78/150/20
f 78/150/20 11/151/21 84/152/22
f 12/106/23 90/20/24 11/18/21
f 11/151/21 90/153/24 84/152/22
f 12/106/23 13/107/25 90/20/24
f 90/108/24 13/140/25 96/141/26
f 14/142/27 102/143/28 13/140/25
f 13/140/25 102/143/28 96/141/26
f 14/142/27 15/144/29 102/143/28
f 102/143/28 15/144/29 108/145/30
f 16/111/31 114/24/32 15/109/29
f 15/144/29 114/146/32 108/145/30
f 16/111/31 1/103/3 114/24/32
f 114/24/32 1/103/3 24/2/4
f 2/25/33 1/110/34 17/125/35
f 3/126/36 2/25/33 17/125/35
f 4/127/37 3/126/36 17/125/35
f 5/128/38 4/127/37 17/125/35
f 6/129/39 5/128/38 17/125/35
f 7/130/40 6/129/39 17/125/35
f 8/131/41 7/130/40 17/125/35
f 9/132/42 8/131/41 17/125/35
f 10/133/43 9/132/42 17/125/35
f 11/134/44 10/133/43 17/125/35
f 12/135/45 11/134/44 17/125/35
f 13/136/46 12/135/45 17/125/35
f 14/137/47 13/136/46 17/125/35
f 15/138/48 14/137/47 17/125/35
f 16/139/49 15/138/48 17/125/35
f 1/110/34 16/139/49 17/125/35
f 19/26/50 25/27/51 18/114/52
f 25/27/51 31/117/53 18/114/52
f 31/117/53 37/112/54 18/114/52
f 37/29/54 43/30/55 18/28/52
f 43/30/55 49/31/56 18/28/52
f 49/31/56 55/32/57 18/28/52
f 55/32/57 61/33/58 18/28/52
f 61/33/58 67/34/59 18/28/52
f 67/34/59 73/35/60 18/28/52
f 73/35/60 79/36/61 18/28/52
f 79/36/61 85/37/62 18/28/52
f 85/113/62 91/38/63 18/114/52
f 91/38/63 97/39/64 18/114/52
f 97/39/64 103/40/65 18/114/52
f 103/40/65 109/41/66 18/114/52
f 109/41/66 19/26/50 18/114/52
f 24/2/4 23/42/67 114/24/32
f 114/24/32 23/42/67 113/43/68
f 23/42/67 22/44/69 113/43/68
f 113/43/68 22/44/69 112/45/70
f 22/44/69 21/46/71 112/45/70
f 112/45/70 21/46/71 111/47/72
f 21/46/71 20/48/73 111/47/72
f 111/47/72 20/48/73 110/49/74
f 20/48/73 19/26/50 110/49/74
f 110/49/74 19/26/50 109/41/66
f 19/26/50 20/48/75 25/27/51
f 25/27/51 20/48/75 26/50/76
f 20/48/75 21/46/77 26/50/76
f 26/50/76 21/46/77 27/51/78
f 21/46/77 22/44/79 27/51/78
f 27/51/78 22/44/79 28/52/80
f 22/44/79 23/42/81 28/52/80
f 28/52/80 23/42/81 29/53/82
f 23/42/81 24/2/4 29/53/82
f 29/53/82 24/2/4 30/1/2
f 25/27/51 26/50/83 31/117/53
f 31/117/53 26/50/83 32/115/84
f 26/50/83 27/51/85 32/115/84
f 32/115/84 27/51/85 33/118/86
f 27/51/85 28/52/87 33/118/86
f 33/118/86 28/52/87 34/120/88
f 28/52/87 29/53/89 34/120/88
f 34/120/88 29/53/89 35/122/90
f 29/53/89 30/1/2 35/122/90
f 35/122/90 30/1/2 36/3/6
f 31/117/53 32/115/91 37/112/54
f 37/112/54 32/115/91 38/116/92
f 32/115/91 33/118/93 38/116/92
f 38/116/92 33/118/93 39/119/94
f 33/118/93 34/120/95 39/119/94
f 39/119/94 34/120/95 40/121/96
f 34/120/95 35/122/97 40/121/96
f 40/121/96 35/122/97 41/123/98
f 35/122/97 36/3/6 41/123/98
f 41/123/98 36/3/6 42/124/8
f 37/29/54 38/54/99 43/30/55
f 43/30/55 38/54/99 44/58/100
f 38/54/99 39/55/101 44/58/100
f 44/58/100 39/55/101 45/59/102
f 39/55/101 40/56/103 45/59/102
f 45/59/102 40/56/103 46/60/104
f 40/56/103 41/57/105 46/60/104
f 46/60/104 41/57/105 47/61/106
f 41/57/105 42/5/8 47/61/106
f 47/61/106 42/5/8 48/7/10
f 43/30/55 44/58/107 49/31/56
f 49/31/56 44/58/107 50/62/108
f 44/58/107 45/59/109 50/62/108
f 50/62/108 45/59/109 51/63/110
f 45/59/109 46/60/111 51/63/110
f 51/63/110 46/60/111 52/64/112
f 46/60/111 47/61/113 52/64/112
f 52/64/112 47/61/113 53/65/114
f 47/61/113 48/7/10 53/65/114
f 53/65/114 48/7/10 54/9/12
f 49/31/56 50/62/115 55/32/57
f 55/32/57 50/62/115 56/66/116
f 50/62/115 51/63/117 56/66/116
f 56/66/116 51/63/117 57/67/118
f 51/63/117 52/64/119 57/67/118
f 57/67/118 52/64/119 58/68/120
f 52/64/119 53/65/121 58/68/120
f 58/68/120 53/65/121 59/69/122
f 53/65/121 54/9/12 59/69/122
f 59/69/122 54/9/12 60/11/14
f 55/32/57 56/66/123 61/33/58
f 61/33/58 56/66/123 62/70/124
f 56/66/123 57/67/125 62/70/124
f 62/70/124 57/67/125 63/71/126
f 57/67/125 58/68/127 63/71/126
f 63/71/126 58/68/127 64/72/128
f 58/68/127 59/69/129 64/72/128
f 64/72/128 59/69/129 65/73/130
f 59/69/129 60/11/14 65/73/130
f 65/73/130 60/11/14 66/13/16
f 61/33/58 62/70/131 67/34/59
f 67/34/59 62/70/131 68/74/132
f 62/70/131 63/71/133 68/74/132
f 68/74/132 63/71/133 69/75/134
f 63/71/133 64/72/135 69/75/134
f 69/75/134 64/72/135 70/76/136
f 64/72/135 65/73/137 70/76/136
f 70/76/136 65/73/137 71/77/138
f 65/73/137 66/13/16 71/77/138
f 71/77/138 66/13/16 72/15/18
f 67/34/59 68/74/139 73/35/60
f 73/35/60 68/74/139 74/78/140
f 68/74/139 69/75/141 74/78/140
f 74/78/140 69/75/141 75/79/142
f 69/75/141 70/76/143 75/79/142
f 75/79/142 70/76/143 76/80/144
f 70/76/143 71/77/145 76/80/144
f 76/80/144 71/77/145 77/81/146
f 71/77/145 72/15/18 77/81/146
f 77/81/146 72/15/18 78/17/20
f 73/35/60 74/78/147 79/36/61
f 79/36/61 74/78/147 80/82/148
f 74/78/147 75/79/149 80/82/148
f 80/82/148 75/79/149 81/83/150
f 75/79/149 76/80/151 81/83/150
f 81/83/150 76/80/151 82/84/152
f 76/80/151 77/81/153 82/84/152
f 82/84/152 77/81/153 83/85/154
f 77/81/153 78/17/20 83/85/154
f 83/85/154 78/17/20 84/19/22
f 79/36/61 80/82/155 85/37/62
f 85/37/62 80/82/155 86/86/156
f 80/82/155 81/83/157 86/86/156
f 86/86/156 81/83/157 87/87/158
f 81/83/157 82/84/159 87/87/158
f 87/87/158 82/84/159 88/88/160
f 82/84/159 83/85/161 88/88/160
f 88/88/160 83/85/161 89/89/162
f 83/85/161 84/19/22 89/89/162
f 89/89/162 84/19/22 90/20/24
f 85/37/62 86/86/163 91/38/63
f 91/38/63 86/86/163 92/90/164
f 86/86/163 87/87/165 92/90/164
f 92/90/164 87/87/165 93/91/166
f 87/87/165 88/88/167 93/91/166
f 93/91/166 88/88/167 94/92/168
f 88/88/167 89/89/169 94/92/168
f 94/92/168 89/89/169 95/93/170
f 89/89/169 90/20/24 95/93/170
f 95/93/170 90/20/24 96/21/26
f 91/38/63 92/90/171 97/39/64
f 97/39/64 92/90/171 98/94/172
f 92/90/171 93/91/173 98/94/172
f 98/94/172 93/91/173 99/95/174
f 93/91/173 94/92/175 99/95/174
f 99/95/174 94/92/175 100/96/176
f 94/92/175 95/93/177 100/96/176
f 100/96/176 95/93/177 101/97/178
f 95/93/177 96/21/26 101/97/178
f 101/97/178 96/21/26 102/22/28
f 97/39/64 98/94/179 103/40/65
f 103/40/65 98/94/179 104/98/180
f 98/94/179 99/95/181 104/98/180
f 104/98/180 99/95/181 105/99/182
f 99/95/181 100/96/183 105/99/182
f 105/99/182 100/96/183 106/100/184
f 100/96/183 101/97/185 106/100/184
f 106/100/184 101/97/185 107/101/186
f 101/97/185 102/22/28 107/101/186
f 107/101/186 102/22/28 108/23/30
f 103/40/65 104/98/187 109/41/66
f 109/41/66 104/98/187 110/49/188
f 104/98/187 105/99/189 110/49/188
f 110/49/188 105/99/189 111/47/190
f 105/99/189 106/100/191 111/47/190
f 111/47/190 106/100/191 112/45/192
f 106/100/191 107/101/193 112/45/192
f 112/45/192 107/101/193 113/43/194
f 107/101/193 108/23/30 113/43/194
f 113/43/194 108/23/30 114/24/32
